<svg id="그룹_700" data-name="그룹 700" xmlns="http://www.w3.org/2000/svg" width="121" height="121" viewBox="0 0 121 121">
  <path id="패스_1524" data-name="패스 1524" d="M1486.369,1155.162a60.5,60.5,0,1,0,60.5,60.5A60.5,60.5,0,0,0,1486.369,1155.162Zm17.971,37.486a1.333,1.333,0,0,1,1.157.676l12.83,22.436a1.356,1.356,0,0,1,0,1.348,1.332,1.332,0,0,1-1.156.675h-12.657a1.331,1.331,0,0,1-1.155-.675l-6.505-11.365a1.361,1.361,0,0,1,0-1.347l6.331-11.071A1.334,1.334,0,0,1,1504.34,1192.648Zm-3.673,27.5-6.5,11.369a1.333,1.333,0,0,1-1.157.676h-12.993a1.336,1.336,0,0,1-1.158-.676l-6.5-11.369a1.355,1.355,0,0,1,0-1.348l6.5-11.347a1.33,1.33,0,0,1,1.156-.677h12.993a1.335,1.335,0,0,1,1.155.674l6.505,11.348A1.359,1.359,0,0,1,1500.668,1220.143Zm-24.511-44.485,4.6-8.043a1.335,1.335,0,0,1,1.158-.675h9.208a1.33,1.33,0,0,1,1.157.675l4.594,8.043a1.362,1.362,0,0,1,0,1.346l-4.594,8.037a1.332,1.332,0,0,1-1.156.674l-9.21.008a1.336,1.336,0,0,1-1.158-.676l-4.6-8.042A1.356,1.356,0,0,1,1476.157,1175.658Zm-3.634,14.353a1.333,1.333,0,0,1,1.157-.676h25.665a1.33,1.33,0,0,1,1.156.676,1.357,1.357,0,0,1,0,1.346l-6.329,11.075a1.333,1.333,0,0,1-1.158.676l-13.005-.008a1.337,1.337,0,0,1-1.156-.675l-6.332-11.068A1.362,1.362,0,0,1,1472.523,1190.011Zm-4.287,3.168h0a1.335,1.335,0,0,1,1.157.676l6.336,11.079a1.361,1.361,0,0,1,0,1.344l-6.166,10.827a1.335,1.335,0,0,1-1.158.677h-12.671a1.333,1.333,0,0,1-1.156-.674,1.361,1.361,0,0,1,0-1.349l12.5-21.905A1.337,1.337,0,0,1,1468.235,1193.179Zm-16.591-3.168a1.333,1.333,0,0,1,1.157-.676h10.448a1.335,1.335,0,0,1,1.157.676,1.356,1.356,0,0,1,0,1.346l-5.224,9.146a1.33,1.33,0,0,1-2.314,0l-5.224-9.146A1.359,1.359,0,0,1,1451.644,1190.011Zm12.745,57.8a1.335,1.335,0,0,1-1.156.674H1452.8a1.339,1.339,0,0,1-1.158-.676,1.362,1.362,0,0,1,0-1.346l5.223-9.129a1.334,1.334,0,0,1,1.157-.676h0a1.338,1.338,0,0,1,1.157.676l5.209,9.129A1.357,1.357,0,0,1,1464.39,1247.81Zm4.188-2.063h0a1.332,1.332,0,0,1-1.156-.676l-12.839-22.418a1.357,1.357,0,0,1,0-1.346,1.336,1.336,0,0,1,1.158-.676H1468.4a1.333,1.333,0,0,1,1.157.676l6.5,11.357a1.356,1.356,0,0,1,0,1.347l-6.316,11.061A1.337,1.337,0,0,1,1468.578,1245.746Zm19.162,17.7a1.337,1.337,0,0,1-1.272.937h-.007a1.337,1.337,0,0,1-1.268-.946l-2.892-9.359a1.364,1.364,0,0,1,.2-1.2,1.342,1.342,0,0,1,1.075-.551l5.875-.011a1.332,1.332,0,0,1,1.078.552,1.355,1.355,0,0,1,.194,1.208Zm12.76-14.965a1.332,1.332,0,0,1-1.157.675h-25.661a1.334,1.334,0,0,1-1.158-.675,1.361,1.361,0,0,1,0-1.35l6.343-11.073a1.334,1.334,0,0,1,1.156-.674h12.994a1.333,1.333,0,0,1,1.158.676l6.324,11.074A1.357,1.357,0,0,1,1500.5,1248.481Zm3.839-2.726a1.337,1.337,0,0,1-1.156-.673l-6.337-11.063a1.359,1.359,0,0,1,0-1.35l6.491-11.355a1.342,1.342,0,0,1,1.157-.676l12.678-.009a1.33,1.33,0,0,1,1.156.676,1.354,1.354,0,0,1,0,1.346l-12.831,22.427A1.34,1.34,0,0,1,1504.338,1245.755Zm15.6,2.728h-10.45a1.335,1.335,0,0,1-1.157-.676,1.357,1.357,0,0,1,0-1.349l5.226-9.12a1.328,1.328,0,0,1,2.312,0l5.223,9.12a1.352,1.352,0,0,1,0,1.346A1.335,1.335,0,0,1,1519.938,1248.483Zm1.156-57.123-5.225,9.122a1.327,1.327,0,0,1-2.312,0l-5.223-9.121a1.358,1.358,0,0,1,0-1.346,1.335,1.335,0,0,1,1.158-.676h10.448a1.333,1.333,0,0,1,1.157.676A1.357,1.357,0,0,1,1521.094,1191.36Z" transform="translate(-1425.869 -1155.162)" fill="#a32b9e"/>
</svg>
