<svg id="Twitter" xmlns="http://www.w3.org/2000/svg" width="30" height="20.333" viewBox="0 0 30 20.333">
  <path id="패스_2" data-name="패스 2" d="M45.938,22.333A14.493,14.493,0,0,0,60.562,7.71v-.7a11.321,11.321,0,0,0,2.507-2.646,11.561,11.561,0,0,1-2.925.836,5.418,5.418,0,0,0,2.228-2.785,12.774,12.774,0,0,1-3.2,1.253A4.974,4.974,0,0,0,55.409,2a5.232,5.232,0,0,0-5.153,5.153,2.715,2.715,0,0,0,.139,1.114A14.4,14.4,0,0,1,39.811,2.836a5.334,5.334,0,0,0-.7,2.646A5.533,5.533,0,0,0,41.342,9.8a4.7,4.7,0,0,1-2.368-.7h0a5.09,5.09,0,0,0,4.178,5.014,4.293,4.293,0,0,1-1.393.139,2.37,2.37,0,0,1-.975-.139,5.276,5.276,0,0,0,4.874,3.621,10.515,10.515,0,0,1-6.406,2.228A3.856,3.856,0,0,1,38,19.826a13.145,13.145,0,0,0,7.938,2.507" transform="translate(-38 -2)" fill="#fff" fill-rule="evenodd"/>
</svg>
