<svg xmlns="http://www.w3.org/2000/svg" width="104.013" height="81.667" viewBox="0 0 104.013 81.667">
  <g id="그룹_679" data-name="그룹 679" transform="translate(-40.454 -49.398)">
    <path id="패스_1504" data-name="패스 1504" d="M134.5,130.219a3.137,3.137,0,0,1-2.487-1.211,3.075,3.075,0,0,1,.577-4.342,42.9,42.9,0,0,0,0-68.586,3.075,3.075,0,0,1-.577-4.342,3.159,3.159,0,0,1,4.391-.571,49.058,49.058,0,0,1,0,78.413A3.148,3.148,0,0,1,134.5,130.219Z" transform="translate(-11.512 -0.143)" fill="#a36fe7"/>
    <path id="패스_1505" data-name="패스 1505" d="M121.792,120.831a3.137,3.137,0,0,1-2.605-1.376,3.075,3.075,0,0,1,.863-4.3,27.711,27.711,0,0,0,0-46.392,3.075,3.075,0,0,1-.863-4.3,3.155,3.155,0,0,1,4.343-.852,33.866,33.866,0,0,1,0,56.689A3.147,3.147,0,0,1,121.792,120.831Z" transform="translate(-9.902 -1.735)" fill="#a36fe7"/>
    <path id="패스_1506" data-name="패스 1506" d="M110.067,112.173a3.137,3.137,0,0,1-2.857-1.821,3.086,3.086,0,0,1,1.563-4.1,14,14,0,0,0,0-25.642,3.084,3.084,0,0,1-1.563-4.1,3.147,3.147,0,0,1,4.144-1.546,20.162,20.162,0,0,1,0,36.931A3.165,3.165,0,0,1,110.067,112.173Z" transform="translate(-8.417 -3.203)" fill="#a36fe7"/>
    <path id="패스_1507" data-name="패스 1507" d="M87.946,131.064a3.15,3.15,0,0,1-2.055-.76L60.445,108.421H50.977A10.477,10.477,0,0,1,40.454,98.013V82.447A10.478,10.478,0,0,1,50.977,72.039h9.467L85.891,50.156a3.167,3.167,0,0,1,3.353-.481,3.1,3.1,0,0,1,1.833,2.818v75.475a3.1,3.1,0,0,1-1.833,2.818A3.158,3.158,0,0,1,87.946,131.064ZM50.977,78.232a4.243,4.243,0,0,0-4.261,4.215V98.013a4.243,4.243,0,0,0,4.261,4.215H61.615a3.155,3.155,0,0,1,2.055.76l21.145,18.183V59.29L63.67,77.473a3.154,3.154,0,0,1-2.055.759Z" fill="#a36fe7"/>
  </g>
</svg>
