<?xml version="1.0" encoding="utf-8"?>
<!-- Generator: Adobe Illustrator 25.1.0, SVG Export Plug-In . SVG Version: 6.00 Build 0)  -->
<svg version="1.1" id="Layer_1" xmlns="http://www.w3.org/2000/svg" xmlns:xlink="http://www.w3.org/1999/xlink" x="0px" y="0px"
	 viewBox="0 0 63.6 8.9" style="enable-background:new 0 0 63.6 8.9;" xml:space="preserve">
<style type="text/css">
	.st0{fill:#A32B9E;}
</style>
<path class="st0" d="M240.9-4.8c-24.1,0-43.7,19.6-43.7,43.7s19.6,43.7,43.7,43.7s43.7-19.6,43.7-43.7S264.9-4.8,240.9-4.8z
	 M249.1,22.1c0.3,0,0.6,0.2,0.7,0.4c0.2,0.3,0.2,0.6,0,0.9l-4,7.1c-0.2,0.3-0.4,0.4-0.7,0.4l-8.3,0c-0.3,0-0.6-0.2-0.7-0.4l-4-7.1
	c-0.2-0.3-0.2-0.6,0-0.9c0.2-0.3,0.4-0.4,0.7-0.4H249.1z M234.3,13.4l2.9-5.1c0.2-0.3,0.4-0.4,0.7-0.4h5.9c0.3,0,0.6,0.2,0.7,0.4
	l2.9,5.1c0.2,0.3,0.2,0.6,0,0.9l-2.9,5.1c-0.2,0.3-0.4,0.4-0.7,0.4l-5.9,0c-0.3,0-0.6-0.2-0.7-0.4l-2.9-5.1
	C234.2,14,234.2,13.7,234.3,13.4z M247.5,49.8l4.1-7.2c0.2-0.3,0.4-0.4,0.7-0.4l8.1,0c0.3,0,0.6,0.2,0.7,0.4c0.2,0.3,0.2,0.6,0,0.9
	l-8.2,14.3c-0.2,0.3-0.4,0.4-0.7,0.4c-0.3,0-0.6-0.2-0.7-0.4l-4-7.1C247.4,50.4,247.4,50,247.5,49.8z M245.8,49
	c-0.2,0.3-0.4,0.4-0.7,0.4h-8.3c-0.3,0-0.6-0.2-0.7-0.4l-4.1-7.3c-0.2-0.3-0.2-0.6,0-0.9l4.1-7.2c0.2-0.3,0.4-0.4,0.7-0.4h8.3
	c0.3,0,0.6,0.2,0.7,0.4l4.1,7.2c0.2,0.3,0.2,0.6,0,0.9L245.8,49z M254.9,58.6l3.3-5.8c0.2-0.3,0.4-0.4,0.7-0.4
	c0.3,0,0.6,0.2,0.7,0.4l3.3,5.8c0.2,0.3,0.2,0.6,0,0.9c-0.2,0.3-0.4,0.4-0.7,0.4h-6.7c-0.3,0-0.6-0.2-0.7-0.4
	C254.7,59.2,254.7,58.8,254.9,58.6z M261.2,39.8c-0.2,0.3-0.4,0.4-0.7,0.4h-8.1c-0.3,0-0.6-0.2-0.7-0.4l-4.1-7.2
	c-0.2-0.3-0.2-0.6,0-0.9l4-7.1c0.2-0.3,0.4-0.4,0.7-0.4c0.3,0,0.6,0.2,0.7,0.4l8.2,14.3C261.4,39.3,261.4,39.6,261.2,39.8z
	 M234.1,32.1c0.2,0.3,0.2,0.6,0,0.9l-3.9,6.9c-0.2,0.3-0.4,0.4-0.7,0.4h-8.1c-0.3,0-0.6-0.2-0.7-0.4c-0.2-0.3-0.2-0.6,0-0.9l8-14
	c0.2-0.3,0.4-0.4,0.7-0.4h0c0.3,0,0.6,0.2,0.7,0.4L234.1,32.1z M226.8,23.4l-3.3,5.8c-0.2,0.3-0.4,0.4-0.7,0.4
	c-0.3,0-0.6-0.2-0.7-0.4l-3.3-5.8c-0.2-0.3-0.2-0.6,0-0.9c0.2-0.3,0.4-0.4,0.7-0.4h6.7c0.3,0,0.6,0.2,0.7,0.4
	C227,22.8,227,23.2,226.8,23.4z M218.7,58.6l3.3-5.8c0.2-0.3,0.4-0.4,0.7-0.4h0c0.3,0,0.6,0.2,0.7,0.4l3.3,5.8
	c0.2,0.3,0.2,0.6,0,0.9c-0.2,0.3-0.4,0.4-0.7,0.4h-6.7c-0.3,0-0.6-0.2-0.7-0.4C218.6,59.2,218.6,58.8,218.7,58.6z M220.6,43.4
	c-0.2-0.3-0.2-0.6,0-0.9c0.2-0.3,0.4-0.4,0.7-0.4h8.1c0.3,0,0.6,0.2,0.7,0.4l4.1,7.2c0.2,0.3,0.2,0.6,0,0.9l-4,7.1
	c-0.2,0.3-0.4,0.4-0.7,0.4h0c-0.3,0-0.6-0.2-0.7-0.4L220.6,43.4z M232,59l4-7.1c0.2-0.3,0.4-0.4,0.7-0.4h8.3c0.3,0,0.6,0.2,0.7,0.4
	l4,7.1c0.2,0.3,0.2,0.6,0,0.9c-0.2,0.3-0.4,0.4-0.7,0.4h-16.4c-0.3,0-0.6-0.2-0.7-0.4C231.9,59.6,231.9,59.3,232,59z M238.4,62.7
	c0.2-0.2,0.4-0.3,0.7-0.4l3.7,0c0.3,0,0.5,0.1,0.7,0.4c0.2,0.2,0.2,0.5,0.1,0.8l-1.9,6c-0.1,0.4-0.4,0.6-0.8,0.6h0
	c-0.4,0-0.7-0.2-0.8-0.6l-1.8-6C238.2,63.2,238.2,62.9,238.4,62.7z M263,23.4l-3.3,5.8c-0.2,0.3-0.4,0.4-0.7,0.4
	c-0.3,0-0.6-0.2-0.7-0.4l-3.3-5.8c-0.2-0.3-0.2-0.6,0-0.9c0.2-0.3,0.4-0.4,0.7-0.4h6.7c0.3,0,0.6,0.2,0.7,0.4
	C263.2,22.8,263.2,23.2,263,23.4z"/>
<g>
	<path class="st0" d="M0,8.7V0.2h1.7v7.1H6v1.4H0z"/>
	<path class="st0" d="M6.9,4.5c0-0.9,0.1-1.6,0.4-2.2c0.2-0.4,0.5-0.8,0.8-1.2s0.7-0.6,1.1-0.8C9.8,0.1,10.4,0,11.1,0
		c1.3,0,2.3,0.4,3,1.2s1.1,1.9,1.1,3.3c0,1.4-0.4,2.5-1.1,3.3s-1.8,1.2-3,1.2c-1.3,0-2.3-0.4-3-1.2S6.9,5.9,6.9,4.5z M8.7,4.4
		c0,1,0.2,1.7,0.7,2.2s1,0.8,1.7,0.8s1.3-0.2,1.7-0.7s0.7-1.2,0.7-2.2c0-1-0.2-1.7-0.6-2.2s-1-0.7-1.7-0.7S9.8,1.7,9.4,2.2
		S8.7,3.4,8.7,4.4z"/>
	<path class="st0" d="M24.4,8.7h-1.9l-0.8-2h-3.4l-0.7,2h-1.8l3.3-8.6h1.8L24.4,8.7z M21.2,5.3L20,2.2l-1.2,3.2H21.2z"/>
	<path class="st0" d="M25.3,0.1h3.2c0.7,0,1.3,0.1,1.6,0.2c0.5,0.1,0.9,0.4,1.3,0.8s0.6,0.8,0.8,1.4s0.3,1.2,0.3,2
		c0,0.7-0.1,1.3-0.3,1.8C32,7,31.7,7.5,31.3,7.9c-0.3,0.3-0.7,0.5-1.2,0.7c-0.4,0.1-0.9,0.2-1.5,0.2h-3.3V0.1z M27,1.6v5.7h1.3
		c0.5,0,0.8,0,1-0.1c0.3-0.1,0.5-0.2,0.7-0.4s0.3-0.4,0.5-0.8s0.2-0.9,0.2-1.6s-0.1-1.2-0.2-1.5S30.2,2.3,30,2.1s-0.5-0.3-0.8-0.4
		c-0.2-0.1-0.7-0.1-1.4-0.1H27z"/>
	<path class="st0" d="M33.9,8.7V0.1h1.7v8.6H33.9z"/>
	<path class="st0" d="M37.3,8.7V0.1H39l3.5,5.7V0.1h1.6v8.6h-1.7l-3.5-5.6v5.6H37.3z"/>
	<path class="st0" d="M49.9,5.6V4.1h3.7v3.4c-0.4,0.4-0.9,0.7-1.6,0.9S50.7,8.9,50,8.9c-0.9,0-1.7-0.2-2.3-0.6s-1.2-0.9-1.5-1.6
		s-0.5-1.5-0.5-2.3c0-0.9,0.2-1.7,0.6-2.4s0.9-1.2,1.6-1.6C48.4,0.1,49.1,0,49.9,0c1.1,0,1.9,0.2,2.5,0.7s1,1.1,1.2,1.9l-1.7,0.3
		c-0.1-0.4-0.3-0.8-0.7-1s-0.8-0.4-1.3-0.4c-0.8,0-1.4,0.2-1.8,0.7s-0.7,1.2-0.7,2.1c0,1,0.2,1.8,0.7,2.3s1,0.8,1.8,0.8
		c0.4,0,0.7-0.1,1.1-0.2s0.7-0.3,0.9-0.5V5.6H49.9z"/>
	<path class="st0" d="M55.3,8.7V7.1h1.6v1.6H55.3z"/>
	<path class="st0" d="M58.6,8.7V7.1h1.6v1.6H58.6z"/>
	<path class="st0" d="M61.9,8.7V7.1h1.6v1.6H61.9z"/>
</g>
</svg>
