<?xml version="1.0" encoding="utf-8"?>
<!-- Generator: Adobe Illustrator 25.1.0, SVG Export Plug-In . SVG Version: 6.00 Build 0)  -->
<svg version="1.1" id="Layer_1" xmlns="http://www.w3.org/2000/svg" xmlns:xlink="http://www.w3.org/1999/xlink" x="0px" y="0px"
	 viewBox="0 0 87.4 87.4" style="enable-background:new 0 0 87.4 87.4;" xml:space="preserve">
<style type="text/css">
	.st0{fill:#A32B9E;}
</style>
<path class="st0" d="M43.7,0C19.6,0,0,19.6,0,43.7s19.6,43.7,43.7,43.7s43.7-19.6,43.7-43.7S67.8,0,43.7,0z M52,26.9
	c0.3,0,0.6,0.2,0.7,0.4c0.2,0.3,0.2,0.6,0,0.9l-4,7.1c-0.2,0.3-0.4,0.4-0.7,0.4l-8.3,0c-0.3,0-0.6-0.2-0.7-0.4l-4-7.1
	c-0.2-0.3-0.2-0.6,0-0.9c0.2-0.3,0.4-0.4,0.7-0.4H52z M37.2,18.2l2.9-5.1c0.2-0.3,0.4-0.4,0.7-0.4h5.9c0.3,0,0.6,0.2,0.7,0.4
	l2.9,5.1c0.2,0.3,0.2,0.6,0,0.9l-2.9,5.1c-0.2,0.3-0.4,0.4-0.7,0.4l-5.9,0c-0.3,0-0.6-0.2-0.7-0.4L37.2,19
	C37,18.8,37,18.4,37.2,18.2z M50.4,54.5l4.1-7.2c0.2-0.3,0.4-0.4,0.7-0.4l8.1,0c0.3,0,0.6,0.2,0.7,0.4c0.2,0.3,0.2,0.6,0,0.9
	l-8.2,14.3c-0.2,0.3-0.4,0.4-0.7,0.4c-0.3,0-0.6-0.2-0.7-0.4l-4-7.1C50.2,55.1,50.2,54.8,50.4,54.5z M48.7,53.8
	c-0.2,0.3-0.4,0.4-0.7,0.4h-8.3c-0.3,0-0.6-0.2-0.7-0.4l-4.1-7.3c-0.2-0.3-0.2-0.6,0-0.9l4.1-7.2c0.2-0.3,0.4-0.4,0.7-0.4h8.3
	c0.3,0,0.6,0.2,0.7,0.4l4.1,7.2c0.2,0.3,0.2,0.6,0,0.9L48.7,53.8z M57.7,63.3l3.3-5.8c0.2-0.3,0.4-0.4,0.7-0.4
	c0.3,0,0.6,0.2,0.7,0.4l3.3,5.8c0.2,0.3,0.2,0.6,0,0.9c-0.2,0.3-0.4,0.4-0.7,0.4h-6.7c-0.3,0-0.6-0.2-0.7-0.4
	C57.5,63.9,57.5,63.6,57.7,63.3z M64.1,44.6c-0.2,0.3-0.4,0.4-0.7,0.4h-8.1c-0.3,0-0.6-0.2-0.7-0.4l-4.1-7.2c-0.2-0.3-0.2-0.6,0-0.9
	l4-7.1c0.2-0.3,0.4-0.4,0.7-0.4c0.3,0,0.6,0.2,0.7,0.4l8.2,14.3C64.2,44,64.2,44.3,64.1,44.6z M36.9,36.8c0.2,0.3,0.2,0.6,0,0.9
	L33,44.6c-0.2,0.3-0.4,0.4-0.7,0.4h-8.1c-0.3,0-0.6-0.2-0.7-0.4c-0.2-0.3-0.2-0.6,0-0.9l8-14c0.2-0.3,0.4-0.4,0.7-0.4h0
	c0.3,0,0.6,0.2,0.7,0.4L36.9,36.8z M29.7,28.2L26.3,34c-0.2,0.3-0.4,0.4-0.7,0.4c-0.3,0-0.6-0.2-0.7-0.4l-3.3-5.8
	c-0.2-0.3-0.2-0.6,0-0.9c0.2-0.3,0.4-0.4,0.7-0.4h6.7c0.3,0,0.6,0.2,0.7,0.4C29.8,27.6,29.8,27.9,29.7,28.2z M21.5,63.3l3.3-5.8
	c0.2-0.3,0.4-0.4,0.7-0.4h0c0.3,0,0.6,0.2,0.7,0.4l3.3,5.8c0.2,0.3,0.2,0.6,0,0.9c-0.2,0.3-0.4,0.4-0.7,0.4h-6.7
	c-0.3,0-0.6-0.2-0.7-0.4C21.4,63.9,21.4,63.6,21.5,63.3z M23.4,48.1c-0.2-0.3-0.2-0.6,0-0.9c0.2-0.3,0.4-0.4,0.7-0.4h8.1
	c0.3,0,0.6,0.2,0.7,0.4l4.1,7.2c0.2,0.3,0.2,0.6,0,0.9l-4,7.1c-0.2,0.3-0.4,0.4-0.7,0.4h0c-0.3,0-0.6-0.2-0.7-0.4L23.4,48.1z
	 M34.9,63.8l4-7.1c0.2-0.3,0.4-0.4,0.7-0.4h8.3c0.3,0,0.6,0.2,0.7,0.4l4,7.1c0.2,0.3,0.2,0.6,0,0.9C52.5,64.9,52.3,65,52,65H35.6
	c-0.3,0-0.6-0.2-0.7-0.4C34.7,64.3,34.7,64,34.9,63.8z M41.2,67.4c0.2-0.2,0.4-0.3,0.7-0.4l3.7,0c0.3,0,0.5,0.1,0.7,0.4
	c0.2,0.2,0.2,0.5,0.1,0.8l-1.9,6c-0.1,0.4-0.4,0.6-0.8,0.6h0c-0.4,0-0.7-0.2-0.8-0.6l-1.8-6C41,67.9,41.1,67.6,41.2,67.4z
	 M65.8,28.2L62.5,34c-0.2,0.3-0.4,0.4-0.7,0.4S61.2,34.3,61,34l-3.3-5.8c-0.2-0.3-0.2-0.6,0-0.9c0.2-0.3,0.4-0.4,0.7-0.4h6.7
	c0.3,0,0.6,0.2,0.7,0.4C66,27.6,66,27.9,65.8,28.2z"/>
<g>
	<path class="st0" d="M1153.9,610.9v-8.5h1.7v7.1h4.3v1.4H1153.9z"/>
	<path class="st0" d="M1160.9,606.7c0-0.9,0.1-1.6,0.4-2.2c0.2-0.4,0.5-0.8,0.8-1.2s0.7-0.6,1.1-0.8c0.5-0.2,1.2-0.3,1.9-0.3
		c1.3,0,2.3,0.4,3,1.2s1.1,1.9,1.1,3.3c0,1.4-0.4,2.5-1.1,3.3s-1.8,1.2-3,1.2c-1.3,0-2.3-0.4-3-1.2S1160.9,608,1160.9,606.7z
		 M1162.6,606.6c0,1,0.2,1.7,0.7,2.2s1,0.8,1.7,0.8s1.3-0.2,1.7-0.7s0.7-1.2,0.7-2.2c0-1-0.2-1.7-0.6-2.2s-1-0.7-1.7-0.7
		s-1.3,0.2-1.7,0.7S1162.6,605.6,1162.6,606.6z"/>
	<path class="st0" d="M1178.3,610.9h-1.9l-0.8-2h-3.4l-0.7,2h-1.8l3.3-8.6h1.8L1178.3,610.9z M1175.1,607.5l-1.2-3.2l-1.2,3.2
		H1175.1z"/>
	<path class="st0" d="M1179.2,602.3h3.2c0.7,0,1.3,0.1,1.6,0.2c0.5,0.1,0.9,0.4,1.3,0.8s0.6,0.8,0.8,1.4s0.3,1.2,0.3,2
		c0,0.7-0.1,1.3-0.3,1.8c-0.2,0.6-0.5,1.1-0.9,1.5c-0.3,0.3-0.7,0.5-1.2,0.7c-0.4,0.1-0.9,0.2-1.5,0.2h-3.3V602.3z M1180.9,603.8
		v5.7h1.3c0.5,0,0.8,0,1-0.1c0.3-0.1,0.5-0.2,0.7-0.4s0.3-0.4,0.5-0.8s0.2-0.9,0.2-1.6s-0.1-1.2-0.2-1.5s-0.3-0.6-0.5-0.8
		s-0.5-0.3-0.8-0.4c-0.2-0.1-0.7-0.1-1.4-0.1H1180.9z"/>
	<path class="st0" d="M1187.8,610.9v-8.6h1.7v8.6H1187.8z"/>
	<path class="st0" d="M1191.2,610.9v-8.6h1.7l3.5,5.7v-5.7h1.6v8.6h-1.7l-3.5-5.6v5.6H1191.2z"/>
	<path class="st0" d="M1203.9,607.8v-1.4h3.7v3.4c-0.4,0.4-0.9,0.7-1.6,0.9s-1.4,0.4-2.1,0.4c-0.9,0-1.7-0.2-2.3-0.6
		s-1.2-0.9-1.5-1.6s-0.5-1.5-0.5-2.3c0-0.9,0.2-1.7,0.6-2.4s0.9-1.2,1.6-1.6c0.6-0.3,1.2-0.4,2.1-0.4c1.1,0,1.9,0.2,2.5,0.7
		s1,1.1,1.2,1.9l-1.7,0.3c-0.1-0.4-0.3-0.8-0.7-1s-0.8-0.4-1.3-0.4c-0.8,0-1.4,0.2-1.8,0.7s-0.7,1.2-0.7,2.1c0,1,0.2,1.8,0.7,2.3
		s1,0.8,1.8,0.8c0.4,0,0.7-0.1,1.1-0.2s0.7-0.3,0.9-0.5v-1.1H1203.9z"/>
	<path class="st0" d="M1209.2,610.9v-1.6h1.6v1.6H1209.2z"/>
	<path class="st0" d="M1212.5,610.9v-1.6h1.6v1.6H1212.5z"/>
	<path class="st0" d="M1215.9,610.9v-1.6h1.6v1.6H1215.9z"/>
</g>
</svg>
