<?xml version="1.0" encoding="utf-8"?>
<!-- Generator: Adobe Illustrator 24.0.2, SVG Export Plug-In . SVG Version: 6.00 Build 0)  -->
<svg version="1.1" id="Layer_1" xmlns="http://www.w3.org/2000/svg" xmlns:xlink="http://www.w3.org/1999/xlink" x="0px" y="0px"
	 viewBox="0 0 100 100" style="enable-background:new 0 0 100 100;" xml:space="preserve">
<style type="text/css">
	.st0{fill:#FFFFFF;}
</style>
<path class="st0" d="M50.42,96.32c-25.7,0-46.97-19.59-47.75-44.34C1.87,26.73,22.7,5.51,49.1,4.69
	c26.39-0.84,48.53,19.06,49.33,44.32c0.39,12.24-4.23,23.9-13.01,32.83C76.65,90.77,64.78,95.9,52,96.3
	C51.47,96.31,50.95,96.32,50.42,96.32z M50.67,5.96c-0.51,0-1.02,0.01-1.53,0.02C23.46,6.78,3.2,27.4,3.97,51.94
	C4.75,76.48,26.28,95.85,51.96,95c12.44-0.39,24-5.38,32.53-14.07c8.53-8.68,13.01-20,12.64-31.89C96.36,25,75.67,5.96,50.67,5.96z"
	/>
</svg>
