<?xml version="1.0" encoding="utf-8"?>
<!-- Generator: Adobe Illustrator 24.0.2, SVG Export Plug-In . SVG Version: 6.00 Build 0)  -->
<svg version="1.1" id="Layer_1" xmlns="http://www.w3.org/2000/svg" xmlns:xlink="http://www.w3.org/1999/xlink" x="0px" y="0px"
	 viewBox="0 0 235 235" style="enable-background:new 0 0 235 235;" xml:space="preserve">
<style type="text/css">
	.st0{fill:#FFFFFF;}
</style>
<path class="st0" d="M117.04,230.13c-27.29,0-53.36-9.29-74.25-26.63C19.55,184.22,5.51,157.3,3.25,127.69
	C-1.41,66.58,46.18,12.95,109.34,8.13c63.16-4.83,118.33,40.98,123,102.09c4.66,61.11-42.93,114.74-106.09,119.56
	C123.17,230.01,120.09,230.13,117.04,230.13z M118.45,8.78c-2.99,0-6,0.11-9.03,0.34C46.81,13.9-0.37,67.06,4.25,127.61
	c2.24,29.33,16.15,56.01,39.17,75.12c23.03,19.11,52.41,28.36,82.75,26.05c62.61-4.78,109.79-57.93,105.17-118.49
	C226.95,52.67,177.2,8.78,118.45,8.78z"/>
</svg>
