<?xml version="1.0" encoding="utf-8"?>
<!-- Generator: Adobe Illustrator 24.0.2, SVG Export Plug-In . SVG Version: 6.00 Build 0)  -->
<svg version="1.1" id="Layer_1" xmlns="http://www.w3.org/2000/svg" xmlns:xlink="http://www.w3.org/1999/xlink" x="0px" y="0px"
	 viewBox="0 0 80 80" style="enable-background:new 0 0 80 80;" xml:space="preserve">
<style type="text/css">
	.st0{fill:#FFFFFF;}
</style>
<path class="st0" d="M50.74,75.86c-8.59,2.37-17.57,1.83-25.59-1.58C16.23,70.48,9.57,63.59,6.4,54.86
	c-6.55-18.01,3.98-38.31,23.47-45.25c19.5-6.92,40.67,2.08,47.21,20.1l0,0c3.17,8.73,2.48,18.25-1.96,26.79
	c-4.43,8.54-12.07,15.09-21.51,18.45C52.66,75.29,51.7,75.59,50.74,75.86z M33,9.76c-0.92,0.25-1.84,0.54-2.76,0.87
	c-18.9,6.72-29.12,26.4-22.78,43.85c3.07,8.45,9.52,15.13,18.16,18.81c8.65,3.68,18.46,3.91,27.61,0.65
	c9.16-3.26,16.57-9.62,20.87-17.9c4.3-8.28,4.97-17.5,1.9-25.95l0,0C69.98,13.48,51.1,4.77,33,9.76z"/>
</svg>
