<?xml version="1.0" encoding="utf-8"?>
<!-- Generator: Adobe Illustrator 24.0.2, SVG Export Plug-In . SVG Version: 6.00 Build 0)  -->
<svg version="1.1" id="Layer_1" xmlns="http://www.w3.org/2000/svg" xmlns:xlink="http://www.w3.org/1999/xlink" x="0px" y="0px"
	 viewBox="0 0 40 40" style="enable-background:new 0 0 40 40;" xml:space="preserve">
<style type="text/css">
	.st0{fill:#FFFFFF;}
</style>
<path class="st0" d="M35.02,26.6c-3.36,8.9-12.2,14.08-20.37,11.69C6.02,35.76,1.34,25.7,4.22,15.88
	C7.11,6.06,16.48,0.12,25.11,2.66l0,0c8.63,2.53,13.31,12.59,10.43,22.41C35.38,25.59,35.21,26.1,35.02,26.6z M5.67,14.7
	c-0.18,0.48-0.34,0.97-0.49,1.47c-2.73,9.3,1.65,18.79,9.75,21.17c8.1,2.38,16.93-3.25,19.64-12.54c2.73-9.29-1.65-18.79-9.75-21.17
	l0,0C17.16,1.36,8.86,6.28,5.67,14.7z"/>
</svg>
