<?xml version="1.0" encoding="utf-8"?>
<!-- Generator: Adobe Illustrator 24.0.2, SVG Export Plug-In . SVG Version: 6.00 Build 0)  -->
<svg version="1.1" id="Layer_1" xmlns="http://www.w3.org/2000/svg" xmlns:xlink="http://www.w3.org/1999/xlink" x="0px" y="0px"
	 viewBox="0 0 20 20" style="enable-background:new 0 0 20 20;" xml:space="preserve">
<style type="text/css">
	.st0{fill:#FFFFFF;}
</style>
<path class="st0" d="M10.03,19.85c-4.39,0-8.37-3.34-9.27-8.08C-0.25,6.44,2.99,1.34,7.99,0.39c2.43-0.46,4.9,0.12,6.96,1.62
	c2.05,1.5,3.45,3.74,3.94,6.31l0,0c1.01,5.32-2.24,10.42-7.23,11.37C11.1,19.8,10.56,19.85,10.03,19.85z M9.62,1.24
	c-0.48,0-0.97,0.05-1.45,0.14C3.72,2.22,0.83,6.8,1.74,11.58c0.91,4.78,5.27,7.98,9.72,7.14c4.46-0.85,7.34-5.42,6.44-10.2
	c-0.44-2.32-1.7-4.34-3.54-5.69C12.93,1.78,11.29,1.24,9.62,1.24z"/>
</svg>
