<?xml version="1.0" encoding="utf-8"?>
<!-- Generator: Adobe Illustrator 24.0.2, SVG Export Plug-In . SVG Version: 6.00 Build 0)  -->
<svg version="1.1" id="Layer_1" xmlns="http://www.w3.org/2000/svg" xmlns:xlink="http://www.w3.org/1999/xlink" x="0px" y="0px"
	 viewBox="0 0 85 85" style="enable-background:new 0 0 85 85;" xml:space="preserve">
<style type="text/css">
	.st0{fill:#FFFFFF;}
</style>
<path class="st0" d="M41.69,80.13c-9.73,0-19.01-3.1-26.44-8.89C6.91,64.73,1.9,55.63,1.14,45.59C0.37,35.55,3.94,25.79,11.19,18.1
	c7.24-7.67,17.28-12.36,28.28-13.2c11-0.83,21.64,2.27,29.96,8.76c8.33,6.5,13.35,15.6,14.11,25.64
	c0.77,10.04-2.81,19.8-10.06,27.49c-7.24,7.67-17.28,12.36-28.28,13.2C44.03,80.08,42.85,80.13,41.69,80.13z M42.99,5.77
	c-1.14,0-2.29,0.04-3.44,0.13C28.8,6.72,18.99,11.3,11.92,18.79C4.87,26.27,1.39,35.76,2.13,45.51c0.74,9.75,5.62,18.61,13.73,24.93
	c8.12,6.33,18.52,9.37,29.27,8.55c10.75-0.82,20.56-5.4,27.63-12.89c7.06-7.48,10.53-16.97,9.79-26.72l0,0
	c-0.74-9.75-5.62-18.61-13.73-24.93C61.56,8.79,52.5,5.77,42.99,5.77z"/>
</svg>
