<?xml version="1.0" encoding="utf-8"?>
<!-- Generator: Adobe Illustrator 24.0.2, SVG Export Plug-In . SVG Version: 6.00 Build 0)  -->
<svg version="1.1" id="Layer_1" xmlns="http://www.w3.org/2000/svg" xmlns:xlink="http://www.w3.org/1999/xlink" x="0px" y="0px"
	 viewBox="0 0 35 35" style="enable-background:new 0 0 35 35;" xml:space="preserve">
<style type="text/css">
	.st0{fill:#FFFFFF;}
</style>
<path class="st0" d="M17.83,34.45c-8.49,0-15.7-6.56-16.36-15.17c-0.33-4.37,1.06-8.61,3.91-11.94C8.24,4.01,12.22,2,16.59,1.66
	c4.38-0.33,8.61,1.06,11.94,3.91c3.33,2.86,5.34,6.84,5.68,11.21l0,0c0.33,4.37-1.06,8.61-3.91,11.94
	c-2.86,3.33-6.84,5.34-11.21,5.68C18.67,34.43,18.25,34.45,17.83,34.45z M17.87,2.61c-0.4,0-0.8,0.01-1.2,0.05
	C12.56,2.97,8.82,4.87,6.14,7.99C3.46,11.11,2.16,15.1,2.47,19.2c0.65,8.48,8.06,14.86,16.54,14.2c4.11-0.31,7.84-2.21,10.53-5.33
	c2.68-3.13,3.99-7.11,3.67-11.21l0,0c-0.31-4.11-2.21-7.84-5.33-10.53C25.06,3.91,21.54,2.61,17.87,2.61z"/>
</svg>
