<?xml version="1.0" encoding="utf-8"?>
<!-- Generator: Adobe Illustrator 24.0.2, SVG Export Plug-In . SVG Version: 6.00 Build 0)  -->
<svg version="1.1" id="Layer_1" xmlns="http://www.w3.org/2000/svg" xmlns:xlink="http://www.w3.org/1999/xlink" x="0px" y="0px"
	 viewBox="0 0 70 70" style="enable-background:new 0 0 70 70;" xml:space="preserve">
<style type="text/css">
	.st0{fill:#FFFFFF;}
</style>
<path class="st0" d="M34.55,68.04c-17.17,0-31.71-12.83-33-29.69C0.2,20.64,13.99,5.09,32.29,3.7c18.31-1.4,34.29,11.88,35.64,29.59
	l0,0C69.28,51,55.49,66.54,37.19,67.94C36.3,68.01,35.42,68.04,34.55,68.04z M34.93,4.6c-0.85,0-1.7,0.03-2.56,0.1
	C14.62,6.05,1.24,21.11,2.55,38.27s16.81,30.05,34.56,28.67c17.75-1.35,31.12-16.42,29.82-33.58l0,0
	C65.68,17.03,51.58,4.6,34.93,4.6z"/>
</svg>
