<?xml version="1.0" encoding="utf-8"?>
<!-- Generator: Adobe Illustrator 24.0.2, SVG Export Plug-In . SVG Version: 6.00 Build 0)  -->
<svg version="1.1" id="Layer_1" xmlns="http://www.w3.org/2000/svg" xmlns:xlink="http://www.w3.org/1999/xlink" x="0px" y="0px"
	 viewBox="0 0 40 40" style="enable-background:new 0 0 40 40;" xml:space="preserve">
<style type="text/css">
	.st0{fill:#FFFFFF;}
</style>
<path class="st0" d="M16.13,36.31c-9.31-1.95-15.8-9.88-14.69-18.32C2.61,9.07,11.82,2.9,21.97,4.23
	c10.15,1.34,17.46,9.67,16.29,18.59l0,0c-1.17,8.92-10.38,15.09-20.53,13.76C17.19,36.51,16.65,36.42,16.13,36.31z M23.37,5.48
	c-0.5-0.1-1.01-0.19-1.52-0.26c-9.6-1.26-18.31,4.53-19.41,12.9c-1.1,8.37,5.82,16.22,15.43,17.47c9.6,1.26,18.31-4.53,19.41-12.9
	l0,0C38.31,14.77,32.17,7.32,23.37,5.48z"/>
</svg>
